<?xml version="1.0" encoding="UTF-8" standalone="no"?>
<svg
   xmlns:dc="http://purl.org/dc/elements/1.1/"
   xmlns:cc="http://creativecommons.org/ns#"
   xmlns:rdf="http://www.w3.org/1999/02/22-rdf-syntax-ns#"
   xmlns:svg="http://www.w3.org/2000/svg"
   xmlns="http://www.w3.org/2000/svg"
   xmlns:sodipodi="http://sodipodi.sourceforge.net/DTD/sodipodi-0.dtd"
   xmlns:inkscape="http://www.inkscape.org/namespaces/inkscape"
   width="16"
   height="16"
   fill="currentColor"
   class="bi bi-github"
   viewBox="0 0 16 16"
   version="1.1"
   id="svg961"
   sodipodi:docname="github_ifm.svg"
   inkscape:version="0.92.5 (2060ec1f9f, 2020-04-08)">
  <metadata
     id="metadata967">
    <rdf:RDF>
      <cc:Work
         rdf:about="">
        <dc:format>image/svg+xml</dc:format>
        <dc:type
           rdf:resource="http://purl.org/dc/dcmitype/StillImage" />
        <dc:title></dc:title>
      </cc:Work>
    </rdf:RDF>
  </metadata>
  <defs
     id="defs965" />
  <sodipodi:namedview
     pagecolor="#ffffff"
     bordercolor="#666666"
     borderopacity="1"
     objecttolerance="10"
     gridtolerance="10"
     guidetolerance="10"
     inkscape:pageopacity="0"
     inkscape:pageshadow="2"
     inkscape:window-width="1920"
     inkscape:window-height="1010"
     id="namedview963"
     showgrid="false"
     inkscape:zoom="11.313709"
     inkscape:cx="-7.4414708"
     inkscape:cy="-0.32862206"
     inkscape:window-x="1920"
     inkscape:window-y="34"
     inkscape:window-maximized="1"
     inkscape:current-layer="svg961" />
  <path
     style="fill:#00adb7;fill-opacity:1;stroke:none;stroke-width:0.06779661"
     d="M 8.0019531,0.03710937 C 6.8265159,0.03857416 6.6469203,0.11239693 6.0410156,0.27539062 4.6447554,0.65099683 3.4130547,1.3490759 2.4335938,2.3203125 -0.69451919,5.4221591 -0.77044016,10.341713 2.2597656,13.498047 c 0.8098776,0.843587 1.9519216,1.602924 2.9824219,1.982422 0.3240411,0.119301 0.4820375,0.207441 0.6603764,0.08253 0.1410983,-0.09883 0.091577,-0.244459 0.091577,-0.986825 V 13.783203 H 5.1621094 c -0.7218683,0 -0.8658504,-0.01929 -1.1015625,-0.146484 C 3.6841707,13.433625 3.4699009,13.183318 3.1894531,12.621094 2.9584943,12.158083 2.7474505,11.899871 2.265625,11.494141 c -0.18399,-0.154934 -0.2069778,-0.20245 -0.1367188,-0.28711 0.1059053,-0.127608 0.5403817,-0.132654 0.8320313,-0.0098 0.235003,0.09902 0.5808746,0.436411 0.9453125,0.923828 0.3231354,0.432178 0.7217336,0.637465 1.2363281,0.634765 0.4980867,-0.0026 0.9179688,-0.163347 0.9179688,-0.351562 0,-0.07269 0.091299,-0.302848 0.2011719,-0.511719 L 6.4609375,11.511719 H 6.2714844 c -0.3388252,0 -1.227172,-0.262708 -1.6503906,-0.488281 C 3.5853155,10.471372 3.0348893,9.515877 2.9042969,8.046875 2.8263986,7.1706146 3.0672353,6.233485 3.5253906,5.6328125 3.6770241,5.4340107 3.6860684,5.3831807 3.6230469,5.15625 3.4854889,4.6609242 3.6111395,3.4947022 3.8242188,3.28125 3.9746359,3.1305696 5.3982124,3.6285753 5.8847656,4.0019531 5.9954983,4.0869286 6.0632237,4.0877607 6.3925781,4.0058594 7.0430355,3.8441088 8.5045932,3.8154211 9.3203125,3.9492188 L 10.03125,4.0664062 10.441406,3.8222656 c 0.47053,-0.2802931 1.052122,-0.4990792 1.486328,-0.5585937 0.280117,-0.038394 0.304092,-0.028515 0.369141,0.1425781 0.164144,0.4317307 0.228926,1.1228828 0.146484,1.5703125 -0.08048,0.4368015 -0.0809,0.4385115 0.134766,0.7519531 0.46725,0.6791264 0.639314,1.4994916 0.527344,2.5117188 -0.0752,0.6798034 -0.239972,1.2367895 -0.496094,1.6738281 -0.232186,0.3961955 -0.822852,0.9313975 -1.271484,1.1503905 -0.41562,0.20288 -1.263328,0.443413 -1.5644535,0.445313 -0.2204366,0.0014 -0.2272654,0.02689 -0.0625,0.263672 0.2670569,0.383785 0.3041645,0.619636 0.3339845,2.166015 l 0.0293,1.513672 0.02238,0.147988 c 0.201221,0.09168 0.546208,-0.04178 1.428788,-0.464394 1.532515,-0.733833 2.933932,-2.169535 3.685547,-3.773438 0.995442,-2.1242626 0.997627,-4.5505817 0.0039,-6.7421872 C 14.865127,3.8498104 14.27922,3.0427863 13.550781,2.3261719 12.505575,1.2979338 11.404195,0.67078908 9.9472656,0.27539062 9.334631,0.10912685 9.1881186,0.03563128 8.0019531,0.03710937 Z"
     id="path5215"
     inkscape:connector-curvature="0"
     sodipodi:nodetypes="ssssccscssscccccsccscsssssscccscscssccscccscssss" />
</svg>
