<?xml version="1.0" encoding="UTF-8" standalone="no"?>
<svg
   xmlns:dc="http://purl.org/dc/elements/1.1/"
   xmlns:cc="http://creativecommons.org/ns#"
   xmlns:rdf="http://www.w3.org/1999/02/22-rdf-syntax-ns#"
   xmlns:svg="http://www.w3.org/2000/svg"
   xmlns="http://www.w3.org/2000/svg"
   xmlns:sodipodi="http://sodipodi.sourceforge.net/DTD/sodipodi-0.dtd"
   xmlns:inkscape="http://www.inkscape.org/namespaces/inkscape"
   width="16"
   height="16"
   fill="currentColor"
   class="bi bi-youtube"
   viewBox="0 0 16 16"
   version="1.1"
   id="svg5306"
   sodipodi:docname="youtube_hms.svg"
   inkscape:version="0.92.5 (2060ec1f9f, 2020-04-08)">
  <metadata
     id="metadata5312">
    <rdf:RDF>
      <cc:Work
         rdf:about="">
        <dc:format>image/svg+xml</dc:format>
        <dc:type
           rdf:resource="http://purl.org/dc/dcmitype/StillImage" />
        <dc:title></dc:title>
      </cc:Work>
    </rdf:RDF>
  </metadata>
  <defs
     id="defs5310" />
  <sodipodi:namedview
     pagecolor="#ffffff"
     bordercolor="#666666"
     borderopacity="1"
     objecttolerance="10"
     gridtolerance="10"
     guidetolerance="10"
     inkscape:pageopacity="0"
     inkscape:pageshadow="2"
     inkscape:window-width="1920"
     inkscape:window-height="1010"
     id="namedview5308"
     showgrid="false"
     inkscape:zoom="16"
     inkscape:cx="13.945832"
     inkscape:cy="-0.31975368"
     inkscape:window-x="1920"
     inkscape:window-y="34"
     inkscape:window-maximized="1"
     inkscape:current-layer="svg5306" />
  <path
     style="fill:#485f70;fill-opacity:1;stroke:none;stroke-width:0.02396972"
     d="M 6.05301,13.206227 C 3.6851031,13.148099 2.2293553,13.035084 1.684842,12.867111 1.0946701,12.685053 0.62064944,12.234836 0.39892506,11.645769 0.29800515,11.377649 0.18676503,10.737938 0.12214828,10.054103 -0.08623661,7.8487778 0.03901312,4.6884282 0.37578723,3.6541875 0.59245405,2.9887989 1.1449666,2.4905921 1.8497681,2.3250824 3.1957011,2.0090148 9.2188685,1.9086675 12.632699,2.1454364 c 1.567666,0.1087268 2.001604,0.2323717 2.486077,0.708375 0.290913,0.2858275 0.445589,0.5658072 0.556468,1.0072667 0.291895,1.1621621 0.392053,3.9573123 0.215903,6.025237 -0.06754,0.7928929 -0.186947,1.4859049 -0.311917,1.8103039 -0.192475,0.499628 -0.644387,0.945145 -1.151996,1.135693 -0.453561,0.170259 -1.631684,0.282163 -3.688143,0.350321 -1.024194,0.03395 -3.7129529,0.04748 -4.686081,0.02359 z M 8.5099065,8.8191231 C 9.6107159,8.1831338 10.52413,7.6507219 10.539715,7.6359854 10.560954,7.6159016 10.081132,7.3270533 8.6237835,6.4826146 7.5544365,5.8629973 6.6167537,5.3203573 6.5400436,5.276748 L 6.400571,5.1974584 v 2.4228824 2.4228822 l 0.053932,-0.03388 c 0.029662,-0.01863 0.954594,-0.5542305 2.0554035,-1.1902199 z"
     id="path5859"
     inkscape:connector-curvature="0" />
</svg>
